<svg xmlns="http://www.w3.org/2000/svg" viewBox="0 0 24 24">
    <defs>
        <!-- 로딩 - 원형 모양 -->
        <symbol id="i-loading" xmlns="http://www.w3.org/2000/svg" viewBox="0 0 24 24" fill="none">
            <path opacity="0.5" d="M12 2C10.0222 2 8.08879 2.58649 6.4443 3.6853C4.79981 4.78412 3.51809 6.3459 2.76121 8.17317C2.00433 10.0004 1.8063 12.0111 2.19215 13.9509C2.578 15.8907 3.53041 17.6725 4.92894 19.0711C6.32746 20.4696 8.10929 21.422 10.0491 21.8079C11.9889 22.1937 13.9996 21.9957 15.8268 21.2388C17.6541 20.4819 19.2159 19.2002 20.3147 17.5557C21.4135 15.9112 22 13.9778 22 12C22 10.6868 21.7413 9.38642 21.2388 8.17317C20.7363 6.95991 19.9997 5.85752 19.0711 4.92893C18.1425 4.00035 17.0401 3.26375 15.8268 2.7612C14.6136 2.25866 13.3132 2 12 2ZM12 20C10.4178 20 8.87104 19.5308 7.55544 18.6518C6.23985 17.7727 5.21447 16.5233 4.60897 15.0615C4.00347 13.5997 3.84504 11.9911 4.15372 10.4393C4.4624 8.88743 5.22433 7.46197 6.34315 6.34315C7.46197 5.22433 8.88743 4.4624 10.4393 4.15372C11.9911 3.84504 13.5997 4.00346 15.0615 4.60896C16.5233 5.21447 17.7727 6.23984 18.6518 7.55544C19.5308 8.87103 20 10.4177 20 12C20 14.1217 19.1572 16.1566 17.6569 17.6569C16.1566 19.1571 14.1217 20 12 20Z"
            fill="currentColor"/>
            <path d="M20 12H22C22 10.6868 21.7413 9.38642 21.2388 8.17317C20.7362 6.95991 19.9997 5.85752 19.0711 4.92893C18.1425 4.00035 17.0401 3.26375 15.8268 2.7612C14.6136 2.25866 13.3132 2 12 2V4C14.1217 4 16.1566 4.84285 17.6569 6.34315C19.1571 7.84344 20 9.87827 20 12Z"
            fill="currentColor"/>
        </symbol>
        <!-- 홈/집 -->
        <symbol id="i-home" xmlns="http://www.w3.org/2000/svg" viewBox="0 0 24 24" fill="none">
            <path d="M4.13947 19.8227V10.0622C4.13947 9.77471 4.20385 9.50258 4.33261 9.24581C4.46137 8.98903 4.6388 8.77754 4.86488 8.61135L10.9119 4.03202C11.2286 3.79021 11.5901 3.66931 11.9966 3.66931C12.4031 3.66931 12.767 3.79021 13.0881 4.03202L19.1351 8.61022C19.362 8.77642 19.5394 8.98828 19.6674 9.24581C19.7962 9.50258 19.8605 9.77471 19.8605 10.0622V19.8227C19.8605 20.1237 19.7486 20.3861 19.5248 20.6099C19.301 20.8337 19.0386 20.9457 18.7376 20.9457H14.9376C14.6801 20.9457 14.4645 20.8588 14.2908 20.6851C14.1171 20.5107 14.0303 20.2951 14.0303 20.0383V14.6831C14.0303 14.4263 13.9434 14.211 13.7698 14.0374C13.5953 13.8629 13.3797 13.7757 13.1229 13.7757H10.8771C10.6203 13.7757 10.4051 13.8629 10.2314 14.0374C10.057 14.211 9.96974 14.4263 9.96974 14.6831V20.0395C9.96974 20.2962 9.8829 20.5115 9.70922 20.6851C9.53554 20.8588 9.32031 20.9457 9.06353 20.9457H5.2624C4.96145 20.9457 4.69906 20.8337 4.47522 20.6099C4.25138 20.3861 4.13947 20.1237 4.13947 19.8227Z"
            fill="currentColor"/>
        </symbol>
        <!-- 셋팅/설정 -->
        <symbol id="i-setting" xmlns="http://www.w3.org/2000/svg" viewBox="0 0 24 24" fill="none">
            <path fill-rule="evenodd" clip-rule="evenodd" d="M14.208 4.83C14.6613 4.97 15.0947 5.15 15.508 5.37L17.341 4.27C17.5321 4.15536 17.7561 4.10786 17.9773 4.13504C18.1985 4.16221 18.4043 4.26251 18.562 4.42L19.58 5.438C19.7375 5.5957 19.8378 5.80149 19.865 6.02271C19.8921 6.24392 19.8446 6.46787 19.73 6.659L18.63 8.492C18.85 8.90533 19.03 9.33867 19.17 9.792L21.243 10.311C21.4592 10.3652 21.6512 10.49 21.7883 10.6658C21.9255 10.8415 22 11.0581 22 11.281V12.719C22 12.9419 21.9255 13.1585 21.7883 13.3342C21.6512 13.51 21.4592 13.6348 21.243 13.689L19.17 14.208C19.03 14.6613 18.85 15.0947 18.63 15.508L19.73 17.341C19.8446 17.5321 19.8921 17.7561 19.865 17.9773C19.8378 18.1985 19.7375 18.4043 19.58 18.562L18.562 19.58C18.4043 19.7375 18.1985 19.8378 17.9773 19.865C17.7561 19.8921 17.5321 19.8446 17.341 19.73L15.508 18.63C15.0947 18.85 14.6613 19.03 14.208 19.17L13.689 21.243C13.6348 21.4592 13.51 21.6512 13.3342 21.7883C13.1585 21.9255 12.9419 22 12.719 22H11.281C11.0581 22 10.8415 21.9255 10.6658 21.7883C10.49 21.6512 10.3652 21.4592 10.311 21.243L9.792 19.17C9.3427 19.0312 8.90744 18.8504 8.492 18.63L6.659 19.73C6.46787 19.8446 6.24392 19.8921 6.02271 19.865C5.80149 19.8378 5.5957 19.7375 5.438 19.58L4.42 18.562C4.26251 18.4043 4.16221 18.1985 4.13504 17.9773C4.10786 17.7561 4.15536 17.5321 4.27 17.341L5.37 15.508C5.14964 15.0926 4.96885 14.6573 4.83 14.208L2.757 13.689C2.54092 13.6349 2.3491 13.5101 2.21196 13.3346C2.07483 13.1591 2.00023 12.9428 2 12.72V11.282C2.00001 11.0591 2.0745 10.8425 2.21166 10.6668C2.34881 10.491 2.54075 10.3662 2.757 10.312L4.83 9.793C4.97 9.33967 5.15 8.90633 5.37 8.493L4.27 6.66C4.15536 6.46887 4.10786 6.24492 4.13504 6.02371C4.16221 5.80249 4.26251 5.5967 4.42 5.439L5.438 4.42C5.5957 4.26251 5.80149 4.16221 6.02271 4.13504C6.24392 4.10786 6.46787 4.15536 6.659 4.27L8.492 5.37C8.90533 5.15 9.33867 4.97 9.792 4.83L10.311 2.757C10.3651 2.54092 10.4899 2.3491 10.6654 2.21196C10.8409 2.07483 11.0572 2.00023 11.28 2H12.718C12.9409 2.00001 13.1575 2.0745 13.3332 2.21166C13.509 2.34881 13.6338 2.54075 13.688 2.757L14.208 4.83ZM12 16C13.0609 16 14.0783 15.5786 14.8284 14.8284C15.5786 14.0783 16 13.0609 16 12C16 10.9391 15.5786 9.92172 14.8284 9.17157C14.0783 8.42143 13.0609 8 12 8C10.9391 8 9.92172 8.42143 9.17157 9.17157C8.42143 9.92172 8 10.9391 8 12C8 13.0609 8.42143 14.0783 9.17157 14.8284C9.92172 15.5786 10.9391 16 12 16Z"
            fill="currentColor"/>
        </symbol>
        <!-- 닫기 X -->
        <symbol id="i-close" xmlns="http://www.w3.org/2000/svg" viewBox="0 0 24 24" fill="none">
            <path d="M12 13.4L7.09999 18.3C6.91665 18.4834 6.68332 18.575 6.39999 18.575C6.11665 18.575 5.88332 18.4834 5.69999 18.3C5.51665 18.1167 5.42499 17.8834 5.42499 17.6C5.42499 17.3167 5.51665 17.0834 5.69999 16.9L10.6 12L5.69999 7.10005C5.51665 6.91672 5.42499 6.68338 5.42499 6.40005C5.42499 6.11672 5.51665 5.88338 5.69999 5.70005C5.88332 5.51672 6.11665 5.42505 6.39999 5.42505C6.68332 5.42505 6.91665 5.51672 7.09999 5.70005L12 10.6L16.9 5.70005C17.0833 5.51672 17.3167 5.42505 17.6 5.42505C17.8833 5.42505 18.1167 5.51672 18.3 5.70005C18.4833 5.88338 18.575 6.11672 18.575 6.40005C18.575 6.68338 18.4833 6.91672 18.3 7.10005L13.4 12L18.3 16.9C18.4833 17.0834 18.575 17.3167 18.575 17.6C18.575 17.8834 18.4833 18.1167 18.3 18.3C18.1167 18.4834 17.8833 18.575 17.6 18.575C17.3167 18.575 17.0833 18.4834 16.9 18.3L12 13.4Z"
            fill="currentColor"/>
        </symbol>
        <!-- 비밀번호 눈 모양 ON -->
        <symbol id="i-eye-on" xmlns="http://www.w3.org/2000/svg" viewBox="0 0 24 24" fill="none">
            <path d="M4.47601 12.9375V12.942C4.45075 13.0373 4.40696 13.1266 4.34714 13.205C4.28732 13.2833 4.21264 13.3491 4.12738 13.3985C4.04213 13.448 3.94796 13.4801 3.85026 13.4932C3.75256 13.5062 3.65325 13.4999 3.55801 13.4745C2.91151 13.3035 3.02551 12.558 3.02551 12.558L3.05251 12.465C3.05251 12.465 3.09151 12.339 3.12301 12.2475C3.50794 11.1682 4.07461 10.1627 4.79851 9.2745C6.14401 7.6335 8.40751 6 12 6C15.5925 6 17.856 7.6335 19.203 9.2745C19.9269 10.1627 20.4936 11.1682 20.8785 12.2475C20.9108 12.3402 20.9408 12.4338 20.9685 12.528L20.973 12.5475V12.5535L20.9745 12.5565C21.0221 12.7474 20.9928 12.9493 20.8928 13.1188C20.7929 13.2883 20.6304 13.4117 20.4403 13.4625C20.2502 13.5132 20.0478 13.4873 19.8767 13.3902C19.7056 13.2931 19.5794 13.1327 19.5255 12.9435L19.524 12.9375L19.512 12.9L19.4595 12.7365C19.1326 11.8253 18.6533 10.9762 18.042 10.2255C16.929 8.868 15.0675 7.5 12 7.5C8.93251 7.5 7.07251 8.868 5.95801 10.2255C5.34676 10.9762 4.86745 11.8253 4.54051 12.7365L4.48801 12.9L4.47601 12.9375ZM8.25001 14.25C8.25001 13.2554 8.6451 12.3016 9.34836 11.5983C10.0516 10.8951 11.0054 10.5 12 10.5C12.9946 10.5 13.9484 10.8951 14.6517 11.5983C15.3549 12.3016 15.75 13.2554 15.75 14.25C15.75 15.2446 15.3549 16.1984 14.6517 16.9017C13.9484 17.6049 12.9946 18 12 18C11.0054 18 10.0516 17.6049 9.34836 16.9017C8.6451 16.1984 8.25001 15.2446 8.25001 14.25Z"
            fill="currentColor"/>
        </symbol>
        <!-- 비밀번호 눈 모양 OFF -->
        <symbol id="i-eye-off" xmlns="http://www.w3.org/2000/svg" viewBox="0 0 21 21" fill="none">
            <path d="M13.1673 14.188L18.9796 20.0017C19.0467 20.0688 19.1264 20.122 19.214 20.1584C19.3017 20.1947 19.3957 20.2134 19.4906 20.2134C19.5855 20.2134 19.6795 20.1947 19.7672 20.1584C19.8549 20.122 19.9346 20.0688 20.0017 20.0017C20.0688 19.9346 20.122 19.8549 20.1584 19.7672C20.1947 19.6795 20.2134 19.5855 20.2134 19.4906C20.2134 19.3957 20.1947 19.3017 20.1584 19.214C20.122 19.1264 20.0688 19.0467 20.0017 18.9796L1.23382 0.21169C1.1667 0.144576 1.08703 0.091338 0.999339 0.0550163C0.91165 0.0186945 0.817666 7.07159e-10 0.722753 0C0.62784 -7.07159e-10 0.533856 0.0186945 0.446168 0.0550163C0.358479 0.091338 0.278803 0.144576 0.21169 0.21169C0.144576 0.278803 0.091338 0.358479 0.0550163 0.446168C0.0186945 0.533856 -7.07159e-10 0.62784 0 0.722753C7.07159e-10 0.817666 0.0186945 0.91165 0.0550163 0.999339C0.091338 1.08703 0.144576 1.1667 0.21169 1.23382L4.87478 5.89691C4.24026 6.34668 3.66921 6.87986 3.17701 7.48208C2.48029 8.33696 1.9349 9.3047 1.56442 10.3435C1.5341 10.4315 1.49657 10.5528 1.49657 10.5528L1.47058 10.6423C1.47058 10.6423 1.36086 11.3598 1.98309 11.5244C2.16802 11.5733 2.36479 11.5467 2.53018 11.4507C2.69557 11.3546 2.81606 11.1967 2.86518 11.0119L2.86662 11.0075L2.87817 10.9715L2.9287 10.8141C3.24336 9.93709 3.70468 9.1199 4.29298 8.39737C4.75645 7.82988 5.30362 7.33626 5.91568 6.93348L8.19381 9.21161C7.73409 9.49975 7.34524 9.88782 7.0562 10.347C6.76715 10.8061 6.58534 11.3245 6.52429 11.8636C6.46324 12.4028 6.52451 12.9487 6.70357 13.4609C6.88262 13.973 7.17483 14.4382 7.55848 14.8219C7.94212 15.2055 8.40733 15.4977 8.91949 15.6768C9.43165 15.8558 9.97759 15.9171 10.5167 15.8561C11.0558 15.795 11.5742 15.6132 12.0334 15.3242C12.4925 15.0351 12.8806 14.6463 13.1687 14.1865M7.68275 4.61781L8.91565 5.85071C9.29005 5.80067 9.68706 5.77564 10.1067 5.77564C13.0576 5.77564 14.8506 7.09228 15.9218 8.39881C16.5101 9.12134 16.9715 9.93854 17.2861 10.8155C17.3102 10.8858 17.327 10.9383 17.3367 10.9729L17.3482 11.009V11.0133L17.3496 11.0148C17.4031 11.1949 17.5246 11.3472 17.6885 11.4391C17.8524 11.5311 18.0457 11.5555 18.2273 11.5072C18.4089 11.4588 18.5645 11.3416 18.661 11.1804C18.7576 11.0192 18.7874 10.8266 18.7442 10.6437V10.6394L18.7428 10.6336L18.737 10.6149C18.7126 10.5235 18.6837 10.4334 18.6504 10.3449C18.2799 9.30615 17.7345 8.33841 17.0378 7.48352C15.7443 5.90413 13.5658 4.33196 10.1096 4.33196C9.21738 4.33196 8.41036 4.43446 7.68275 4.61781Z"
            fill="currentColor"/>
        </symbol>
        <!-- 설명 info -->
        <symbol id="i-info" xmlns="http://www.w3.org/2000/svg" viewBox="0 0 24 24" fill="none">
            <path d="M12 17C12.2833 17 12.521 16.904 12.713 16.712C12.905 16.52 13.0007 16.2827 13 16V12C13 11.7167 12.904 11.4793 12.712 11.288C12.52 11.0967 12.2827 11.0007 12 11C11.7173 10.9993 11.48 11.0953 11.288 11.288C11.096 11.4807 11 11.718 11 12V16C11 16.2833 11.096 16.521 11.288 16.713C11.48 16.905 11.7173 17.0007 12 17ZM12 9C12.2833 9 12.521 8.904 12.713 8.712C12.905 8.52 13.0007 8.28267 13 8C12.9993 7.71733 12.9033 7.48 12.712 7.288C12.5207 7.096 12.2833 7 12 7C11.7167 7 11.4793 7.096 11.288 7.288C11.0967 7.48 11.0007 7.71733 11 8C10.9993 8.28267 11.0953 8.52033 11.288 8.713C11.4807 8.90567 11.718 9.00133 12 9ZM12 22C10.6167 22 9.31667 21.7373 8.1 21.212C6.88334 20.6867 5.825 19.9743 4.925 19.075C4.025 18.1757 3.31267 17.1173 2.788 15.9C2.26333 14.6827 2.00067 13.3827 2 12C1.99933 10.6173 2.262 9.31733 2.788 8.1C3.314 6.88267 4.02633 5.82433 4.925 4.925C5.82367 4.02567 6.882 3.31333 8.1 2.788C9.318 2.26267 10.618 2 12 2C13.382 2 14.682 2.26267 15.9 2.788C17.118 3.31333 18.1763 4.02567 19.075 4.925C19.9737 5.82433 20.6863 6.88267 21.213 8.1C21.7397 9.31733 22.002 10.6173 22 12C21.998 13.3827 21.7353 14.6827 21.212 15.9C20.6887 17.1173 19.9763 18.1757 19.075 19.075C18.1737 19.9743 17.1153 20.687 15.9 21.213C14.6847 21.739 13.3847 22.0013 12 22Z"
            fill="currentColor"/>
        </symbol>
        <!-- 더하기 + -->
        <symbol id="i-plus" xmlns="http://www.w3.org/2000/svg" viewBox="0 0 24 24" fill="none">
            <path d="M18.9182 13.151H13.153V18.9162C13.153 19.222 13.0316 19.5153 12.8153 19.7315C12.5991 19.9477 12.3058 20.0692 12 20.0692C11.6942 20.0692 11.4009 19.9477 11.1847 19.7315C10.9684 19.5153 10.847 19.222 10.847 18.9162V13.151H5.0818C4.776 13.151 4.48272 13.0295 4.26649 12.8133C4.05025 12.5971 3.92877 12.3038 3.92877 11.998C3.92877 11.6922 4.05025 11.3989 4.26649 11.1827C4.48272 10.9664 4.776 10.845 5.0818 10.845H10.847V5.07979C10.847 4.77399 10.9684 4.48071 11.1847 4.26447C11.4009 4.04824 11.6942 3.92676 12 3.92676C12.3058 3.92676 12.5991 4.04824 12.8153 4.26447C13.0316 4.48071 13.153 4.77399 13.153 5.07979V10.845H18.9182C19.224 10.845 19.5173 10.9664 19.7335 11.1827C19.9498 11.3989 20.0712 11.6922 20.0712 11.998C20.0712 12.3038 19.9498 12.5971 19.7335 12.8133C19.5173 13.0295 19.224 13.151 18.9182 13.151Z"
            fill="currentColor"/>
        </symbol>
        <!-- 빼기 - -->
        <symbol id="i-minus" xmlns="http://www.w3.org/2000/svg" viewBox="0 0 24 24" fill="none">
            <path d="M5 12H19" stroke="currentColor" stroke-width="2" stroke-linecap="round" stroke-linejoin="round"/>
        </symbol>
        <!-- 더보기 ... -->
        <symbol id="i-more" xmlns="http://www.w3.org/2000/svg" viewBox="0 0 24 24" fill="none">
            <path d="M12.01 12V12.01H12V12H12.01ZM19.01 12V12.01H19V12H19.01ZM5.01 12V12.01H5V12H5.01Z"
            stroke="currentColor" stroke-width="3" stroke-linejoin="round"/>
        </symbol>
        <!-- 화살표 오른쪽 > -->
        <symbol id="i-arrow-right" xmlns="http://www.w3.org/2000/svg" viewBox="0 0 24 24" fill="none">
            <path d="M15.93 11.4571L7.5705 3.49206C7.43102 3.35909 7.24571 3.28491 7.053 3.28491C6.86029 3.28491 6.67498 3.35909 6.5355 3.49206L6.5265 3.50106C6.45865 3.56552 6.40462 3.64311 6.3677 3.7291C6.33078 3.8151 6.31174 3.90772 6.31174 4.00131C6.31174 4.0949 6.33078 4.18751 6.3677 4.27351C6.40462 4.35951 6.45865 4.4371 6.5265 4.50156L14.3985 12.0016L6.5265 19.4986C6.45865 19.563 6.40462 19.6406 6.3677 19.7266C6.33078 19.8126 6.31174 19.9052 6.31174 19.9988C6.31174 20.0924 6.33078 20.185 6.3677 20.271C6.40462 20.357 6.45865 20.4346 6.5265 20.4991L6.5355 20.5081C6.67498 20.641 6.86029 20.7152 7.053 20.7152C7.24571 20.7152 7.43102 20.641 7.5705 20.5081L15.93 12.5431C16.0035 12.473 16.062 12.3888 16.102 12.2954C16.142 12.2021 16.1627 12.1016 16.1627 12.0001C16.1627 11.8985 16.142 11.798 16.102 11.7047C16.062 11.6113 16.0035 11.5271 15.93 11.4571Z"
            fill="currentColor"/>
        </symbol>
        <!-- 성공 체크 -->
        <symbol id="i-success" xmlns="http://www.w3.org/2000/svg" viewBox="0 0 24 24" fill="none">
            <path d="M12 1.5C14.7848 1.5 17.4555 2.60625 19.4246 4.57538C21.3938 6.54451 22.5 9.21523 22.5 12C22.5 14.7848 21.3938 17.4555 19.4246 19.4246C17.4555 21.3938 14.7848 22.5 12 22.5C9.21523 22.5 6.54451 21.3938 4.57538 19.4246C2.60625 17.4555 1.5 14.7848 1.5 12C1.5 9.21523 2.60625 6.54451 4.57538 4.57538C6.54451 2.60625 9.21523 1.5 12 1.5ZM10.692 14.0715L8.3595 11.7375C8.27588 11.6539 8.17661 11.5876 8.06736 11.5423C7.9581 11.497 7.84101 11.4737 7.72275 11.4737C7.60449 11.4737 7.4874 11.497 7.37814 11.5423C7.26889 11.5876 7.16962 11.6539 7.086 11.7375C6.91712 11.9064 6.82225 12.1354 6.82225 12.3743C6.82225 12.6131 6.91712 12.8421 7.086 13.011L10.056 15.981C10.1394 16.065 10.2386 16.1317 10.3479 16.1773C10.4571 16.2228 10.5744 16.2462 10.6927 16.2462C10.8111 16.2462 10.9284 16.2228 11.0376 16.1773C11.1469 16.1317 11.2461 16.065 11.3295 15.981L17.4795 9.8295C17.5642 9.74623 17.6316 9.647 17.6778 9.53755C17.724 9.42809 17.7481 9.31057 17.7487 9.19177C17.7492 9.07297 17.7262 8.95523 17.6811 8.84535C17.6359 8.73547 17.5694 8.63562 17.4854 8.55156C17.4015 8.46751 17.3017 8.4009 17.1919 8.3556C17.0821 8.31029 16.9644 8.28718 16.8455 8.28759C16.7267 8.288 16.6092 8.31193 16.4997 8.358C16.3902 8.40407 16.2909 8.47136 16.2075 8.556L10.692 14.0715Z"
            fill="currentColor"/>
        </symbol>
        <!-- 에러 ! -->
        <symbol id="i-error" xmlns="http://www.w3.org/2000/svg" viewBox="0 0 24 24" fill="none">
            <path d="M12 17C12.2833 17 12.521 16.904 12.713 16.712C12.905 16.52 13.0007 16.2827 13 16C12.9993 15.7173 12.9033 15.48 12.712 15.288C12.5207 15.096 12.2833 15 12 15C11.7167 15 11.4793 15.096 11.288 15.288C11.0967 15.48 11.0007 15.7173 11 16C10.9993 16.2827 11.0953 16.5203 11.288 16.713C11.4807 16.9057 11.718 17.0013 12 17ZM12 13C12.2833 13 12.521 12.904 12.713 12.712C12.905 12.52 13.0007 12.2827 13 12V8C13 7.71667 12.904 7.47933 12.712 7.288C12.52 7.09667 12.2827 7.00067 12 7C11.7173 6.99933 11.48 7.09533 11.288 7.288C11.096 7.48067 11 7.718 11 8V12C11 12.2833 11.096 12.521 11.288 12.713C11.48 12.905 11.7173 13.0007 12 13ZM12 22C10.6167 22 9.31667 21.7373 8.1 21.212C6.88334 20.6867 5.825 19.9743 4.925 19.075C4.025 18.1757 3.31267 17.1173 2.788 15.9C2.26333 14.6827 2.00067 13.3827 2 12C1.99933 10.6173 2.262 9.31733 2.788 8.1C3.314 6.88267 4.02633 5.82433 4.925 4.925C5.82367 4.02567 6.882 3.31333 8.1 2.788C9.318 2.26267 10.618 2 12 2C13.382 2 14.682 2.26267 15.9 2.788C17.118 3.31333 18.1763 4.02567 19.075 4.925C19.9737 5.82433 20.6863 6.88267 21.213 8.1C21.7397 9.31733 22.002 10.6173 22 12C21.998 13.3827 21.7353 14.6827 21.212 15.9C20.6887 17.1173 19.9763 18.1757 19.075 19.075C18.1737 19.9743 17.1153 20.687 15.9 21.213C14.6847 21.739 13.3847 22.0013 12 22Z"
            fill="currentColor"/>
        </symbol>
        <!-- 시계 -->
        <symbol id="i-clock" xmlns="http://www.w3.org/2000/svg" viewBox="0 0 24 24" fill="none">
            <path d="M12 2C10.6868 2 9.38642 2.25866 8.17317 2.7612C6.95991 3.26375 5.85752 4.00035 4.92893 4.92893C3.05357 6.8043 2 9.34784 2 12C2 14.6522 3.05357 17.1957 4.92893 19.0711C5.85752 19.9997 6.95991 20.7362 8.17317 21.2388C9.38642 21.7413 10.6868 22 12 22C14.6522 22 17.1957 20.9464 19.0711 19.0711C20.9464 17.1957 22 14.6522 22 12C22 10.6868 21.7413 9.38642 21.2388 8.17317C20.7362 6.95991 19.9997 5.85752 19.0711 4.92893C18.1425 4.00035 17.0401 3.26375 15.8268 2.7612C14.6136 2.25866 13.3132 2 12 2ZM16.2 16.2L11 13V7H12.5V12.2L17 14.9L16.2 16.2Z"
            fill="currentColor"/>
        </symbol>
        <!-- chevron << -->
        <symbol id="i-chevron-double-left" xmlns="http://www.w3.org/2000/svg" viewBox="0 0 24 24" fill="none">
            <path d="M6.54872 9.25814L14.9082 17.2231C15.0477 17.3561 15.233 17.4303 15.4257 17.4303C15.6184 17.4303 15.8037 17.3561 15.9432 17.2231L15.9522 17.2141C16.0201 17.1497 16.0741 17.0721 16.111 16.9861C16.1479 16.9001 16.167 16.8075 16.167 16.7139C16.167 16.6203 16.1479 16.5277 16.111 16.4417C16.0741 16.3557 16.0201 16.2781 15.9522 16.2136L8.08022 8.71364L15.9522 1.21664C16.0201 1.15218 16.0741 1.07459 16.111 0.988595C16.1479 0.902595 16.167 0.809984 16.167 0.716394C16.167 0.622805 16.1479 0.530193 16.111 0.444194C16.0741 0.358194 16.0201 0.280604 15.9522 0.216145L15.9432 0.207144C15.8037 0.0741767 15.6184 -8.42344e-09 15.4257 0C15.233 8.42344e-09 15.0477 0.0741767 14.9082 0.207144L6.54872 8.17214C6.4752 8.24219 6.41667 8.32644 6.37668 8.41977C6.33669 8.51311 6.31607 8.6136 6.31607 8.71514C6.31607 8.81669 6.33669 8.91718 6.37668 9.01051C6.41667 9.10385 6.4752 9.1881 6.54872 9.25814Z"
            fill="currentColor"/>
            <path d="M0.232651 9.25814L8.59215 17.2231C8.73163 17.3561 8.91695 17.4303 9.10965 17.4303C9.30236 17.4303 9.48767 17.3561 9.62715 17.2231L9.63615 17.2141C9.704 17.1497 9.75803 17.0721 9.79495 16.9861C9.83187 16.9001 9.85091 16.8075 9.85091 16.7139C9.85091 16.6203 9.83187 16.5277 9.79495 16.4417C9.75803 16.3557 9.704 16.2781 9.63615 16.2136L1.76415 8.71364L9.63615 1.21664C9.704 1.15218 9.75803 1.07459 9.79495 0.988595C9.83187 0.902595 9.85091 0.809984 9.85091 0.716394C9.85091 0.622805 9.83187 0.530193 9.79495 0.444194C9.75803 0.358194 9.704 0.280604 9.63615 0.216145L9.62715 0.207144C9.48767 0.0741768 9.30236 6.69077e-08 9.10965 7.53312e-08C8.91694 8.37546e-08 8.73163 0.0741768 8.59215 0.207144L0.23265 8.17214C0.159132 8.24219 0.100603 8.32644 0.0606122 8.41977C0.0206211 8.51311 -4.43866e-09 8.6136 0 8.71514C4.43866e-09 8.81669 0.0206211 8.91718 0.0606122 9.01051C0.100603 9.10385 0.159132 9.1881 0.232651 9.25814Z"
            fill="currentColor"/>
        </symbol>
        <!-- chevron < -->
        <symbol id="i-chevron-left" xmlns="http://www.w3.org/2020/svg" viewBox="0 0 24 24" fill="none">
            <path d="M7.30718 12.5429L15.6667 20.5079C15.8062 20.6409 15.9915 20.7151 16.1842 20.7151C16.3769 20.7151 16.5622 20.6409 16.7017 20.5079L16.7107 20.4989C16.7785 20.4345 16.8326 20.3569 16.8695 20.2709C16.9064 20.1849 16.9254 20.0923 16.9254 19.9987C16.9254 19.9051 16.9064 19.8125 16.8695 19.7265C16.8326 19.6405 16.7785 19.5629 16.7107 19.4984L8.83868 11.9984L16.7107 4.50145C16.7785 4.43699 16.8326 4.3594 16.8695 4.2734C16.9064 4.1874 16.9254 4.09479 16.9254 4.0012C16.9254 3.90761 16.9064 3.815 16.8695 3.729C16.8326 3.643 16.7785 3.56541 16.7107 3.50095L16.7017 3.49195C16.5622 3.35898 16.3769 3.2848 16.1842 3.2848C15.9915 3.2848 15.8062 3.35898 15.6667 3.49195L7.30718 11.4569C7.23366 11.527 7.17513 11.6112 7.13514 11.7046C7.09515 11.7979 7.07453 11.8984 7.07453 11.9999C7.07453 12.1015 7.09515 12.202 7.13514 12.2953C7.17513 12.3887 7.23366 12.4729 7.30718 12.5429Z"
            fill="currentColor"/>
        </symbol>
        <!-- chevron > -->
        <symbol id="i-chevron-right" xmlns="http://www.w3.org/2000/svg" viewBox="0 0 24 24" fill="none">
            <path d="M16.6928 11.4571L8.33333 3.49205C8.19384 3.35909 8.00853 3.28491 7.81583 3.28491C7.62312 3.28491 7.43781 3.35909 7.29833 3.49205L7.28933 3.50105C7.22147 3.56551 7.16744 3.6431 7.13052 3.7291C7.0936 3.8151 7.07456 3.90771 7.07456 4.0013C7.07456 4.09489 7.0936 4.18751 7.13052 4.27351C7.16744 4.35951 7.22147 4.43709 7.28933 4.50155L15.1613 12.0016L7.28933 19.4986C7.22147 19.563 7.16744 19.6406 7.13052 19.7266C7.0936 19.8126 7.07456 19.9052 7.07456 19.9988C7.07456 20.0924 7.0936 20.185 7.13052 20.271C7.16744 20.357 7.22147 20.4346 7.28932 20.4991L7.29833 20.5081C7.43781 20.641 7.62312 20.7152 7.81582 20.7152C8.00853 20.7152 8.19384 20.641 8.33332 20.5081L16.6928 12.5431C16.7663 12.473 16.8249 12.3888 16.8649 12.2954C16.9049 12.2021 16.9255 12.1016 16.9255 12.0001C16.9255 11.8985 16.9049 11.798 16.8649 11.7047C16.8249 11.6113 16.7663 11.5271 16.6928 11.4571Z"
            fill="currentColor"/>
        </symbol>
        <!-- chevron >> -->
        <symbol id="i-chevron-double-right" xmlns="http://www.w3.org/2000/svg" viewBox="0 0 24 24" fill="none">
            <path d="M9.61826 8.17214L1.25876 0.207143C1.11928 0.074176 0.933969 8.42367e-09 0.741263 0C0.548557 -8.42322e-09 0.363247 0.074176 0.223764 0.207143L0.214763 0.216143C0.146911 0.280603 0.0928815 0.358192 0.0559609 0.444192C0.0190403 0.530192 7.03364e-07 0.622803 6.99273e-07 0.716393C6.95182e-07 0.809983 0.0190402 0.902594 0.0559609 0.988594C0.0928815 1.07459 0.146911 1.15218 0.214763 1.21664L8.08676 8.71664L0.214763 16.2136C0.14691 16.2781 0.0928808 16.3557 0.0559602 16.4417C0.0190396 16.5277 4.09094e-09 16.6203 0 16.7139C-4.09094e-09 16.8075 0.0190395 16.9001 0.0559602 16.9861C0.0928808 17.0721 0.14691 17.1497 0.214763 17.2141L0.223763 17.2231C0.363246 17.3561 0.548556 17.4303 0.741262 17.4303C0.933968 17.4303 1.11928 17.3561 1.25876 17.2231L9.61826 9.25814C9.69178 9.1881 9.75031 9.10385 9.7903 9.01051C9.83029 8.91718 9.85091 8.81669 9.85091 8.71514C9.85091 8.6136 9.83029 8.51311 9.7903 8.41977C9.75031 8.32643 9.69178 8.24219 9.61826 8.17214Z"
            fill="currentColor"/>
            <path d="M15.9343 8.17214L7.57485 0.207143C7.43537 0.074176 7.25006 8.42367e-09 7.05735 0C6.86464 -8.42322e-09 6.67933 0.074176 6.53985 0.207143L6.53085 0.216143C6.463 0.280603 6.40897 0.358192 6.37205 0.444192C6.33513 0.530192 6.31609 0.622803 6.31609 0.716393C6.31609 0.809983 6.33513 0.902594 6.37205 0.988594C6.40897 1.07459 6.463 1.15218 6.53085 1.21664L14.4028 8.71664L6.53085 16.2136C6.463 16.2781 6.40897 16.3557 6.37205 16.4417C6.33513 16.5277 6.31609 16.6203 6.31609 16.7139C6.31609 16.8075 6.33513 16.9001 6.37205 16.9861C6.40897 17.0721 6.463 17.1497 6.53085 17.2141L6.53985 17.2231C6.67933 17.3561 6.86464 17.4303 7.05735 17.4303C7.25005 17.4303 7.43537 17.3561 7.57485 17.2231L15.9343 9.25814C16.0079 9.1881 16.0664 9.10385 16.1064 9.01051C16.1464 8.91718 16.167 8.81669 16.167 8.71514C16.167 8.6136 16.1464 8.51311 16.1064 8.41977C16.0664 8.32643 16.0079 8.24219 15.9343 8.17214Z"
            fill="currentColor"/>
        </symbol>
        <!-- chevron up (채워진 삼각형) -->
        <symbol id="i-chevron-up" xmlns="http://www.w3.org/2000/svg" viewBox="0 0 24 24" fill="none">
            <path d="M2.99999 19H21C21.1822 18.9994 21.3609 18.9491 21.5167 18.8546C21.6725 18.7601 21.7995 18.6248 21.8842 18.4634C21.9688 18.302 22.0079 18.1206 21.9971 17.9387C21.9863 17.7568 21.9261 17.5812 21.823 17.431L12.823 4.43098C12.45 3.89198 11.552 3.89198 11.178 4.43098L2.17799 17.431C2.07382 17.5809 2.01273 17.7566 2.00136 17.9388C1.98999 18.121 2.02878 18.3029 2.11351 18.4646C2.19824 18.6263 2.32567 18.7617 2.48196 18.8561C2.63825 18.9505 2.81741 19.0003 2.99999 19Z"
            fill="currentColor"/>
        </symbol>
        <!-- 햄버거 메뉴 -->
        <symbol id="i-menu" xmlns="http://www.w3.org/2000/svg" viewBox="0 0 24 24" fill="none">
            <path d="M4 18H20C20.55 18 21 17.55 21 17C21 16.45 20.55 16 20 16H4C3.45 16 3 16.45 3 17C3 17.55 3.45 18 4 18ZM4 13H20C20.55 13 21 12.55 21 12C21 11.45 20.55 11 20 11H4C3.45 11 3 11.45 3 12C3 12.55 3.45 13 4 13ZM3 7C3 7.55 3.45 8 4 8H20C20.55 8 21 7.55 21 7C21 6.45 20.55 6 20 6H4C3.45 6 3 6.45 3 7Z"
            fill="currentColor"/>
        </symbol>
        <!-- 유저 -->
        <symbol id="i-user" xmlns="http://www.w3.org/2000/svg" viewBox="0 0 24 24" fill="none">
            <path d="M12 12.75C15.942 12.75 19.987 15.313 20.249 20.462C20.2591 20.6605 20.19 20.8548 20.0568 21.0024C19.9237 21.15 19.7375 21.2387 19.539 21.249C17.459 21.355 7.826 21.42 4.462 21.249C4.26336 21.2389 4.07686 21.1503 3.94352 21.0027C3.81018 20.8552 3.74093 20.6606 3.751 20.462C4.013 15.314 8.058 12.75 12 12.75ZM12 3.75C11.0054 3.75 10.0516 4.14509 9.34835 4.84835C8.64509 5.55161 8.25 6.50544 8.25 7.5C8.25 8.49456 8.64509 9.44839 9.34835 10.1517C10.0516 10.8549 11.0054 11.25 12 11.25C12.9946 11.25 13.9484 10.8549 14.6517 10.1517C15.3549 9.44839 15.75 8.49456 15.75 7.5C15.75 6.50544 15.3549 5.55161 14.6517 4.84835C13.9484 4.14509 12.9946 3.75 12 3.75Z"
            fill="currentColor"/>
        </symbol>
        <!-- 로그아웃 -->
        <symbol id="i-logout" xmlns="http://www.w3.org/2000/svg" viewBox="0 0 24 24" fill="none">
            <path opacity="0.5" d="M11.9165 21.7838C9.32162 21.7838 6.83307 20.753 4.99825 18.9182C3.16343 17.0834 2.13264 14.5948 2.13264 12C2.13264 9.40517 3.16343 6.91662 4.99825 5.0818C6.83307 3.24698 9.32162 2.21619 11.9165 2.21619V21.7838Z"
            fill="currentColor"/>
            <path fill-rule="evenodd" clip-rule="evenodd" d="M17.3832 7.68292C17.2114 7.8549 17.1149 8.08803 17.1149 8.3311C17.1149 8.57417 17.2114 8.80729 17.3832 8.97928L19.4867 11.0828H9.4705C9.22724 11.0828 8.99393 11.1794 8.82192 11.3514C8.64991 11.5235 8.55327 11.7568 8.55327 12C8.55327 12.2433 8.64991 12.4766 8.82192 12.6486C8.99393 12.8206 9.22724 12.9173 9.4705 12.9173H19.4867L17.3832 15.0208C17.293 15.1048 17.2208 15.206 17.1706 15.3185C17.1205 15.431 17.0935 15.5525 17.0914 15.6757C17.0892 15.7988 17.1119 15.9211 17.158 16.0354C17.2041 16.1496 17.2728 16.2533 17.3599 16.3404C17.447 16.4275 17.5507 16.4962 17.6649 16.5423C17.7791 16.5884 17.9015 16.6111 18.0246 16.6089C18.1478 16.6068 18.2693 16.5798 18.3818 16.5297C18.4943 16.4795 18.5955 16.4073 18.6795 16.3171L22.3484 12.6482C22.5202 12.4762 22.6167 12.2431 22.6167 12C22.6167 11.757 22.5202 11.5238 22.3484 11.3519L18.6795 7.68292C18.5075 7.51115 18.2744 7.41467 18.0313 7.41467C17.7883 7.41467 17.5551 7.51115 17.3832 7.68292Z"
            fill="currentColor"/>
        </symbol>
        <!-- 돋보기/검색 -->
        <symbol id="i-search" xmlns="http://www.w3.org/2000/svg" viewBox="0 0 18 18" fill="none">
            <path d="M6.5 0C8.22391 0 9.87721 0.684819 11.0962 1.90381C12.3152 3.12279 13 4.77609 13 6.5C13 8.11 12.41 9.59 11.44 10.73L11.71 11H12.5L17.5 16L16 17.5L11 12.5V11.71L10.73 11.44C9.55037 12.4465 8.05065 12.9996 6.5 13C4.77609 13 3.12279 12.3152 1.90381 11.0962C0.684819 9.87721 0 8.22391 0 6.5C0 4.77609 0.684819 3.12279 1.90381 1.90381C3.12279 0.684819 4.77609 0 6.5 0ZM6.5 2C4 2 2 4 2 6.5C2 9 4 11 6.5 11C9 11 11 9 11 6.5C11 4 9 2 6.5 2Z"
            fill="currentColor"/>
        </symbol>
        <!-- 어드민 -->
        <symbol id="i-admin" xmlns="http://www.w3.org/2000/svg" viewBox="0 0 24 24" fill="none">
            <path d="M12 1L3 5V11C3 16.55 6.84 21.74 12 23C17.16 21.74 21 16.55 21 11V5L12 1ZM12 4.9C12.5933 4.9 13.1734 5.07595 13.6667 5.40559C14.1601 5.73524 14.5446 6.20377 14.7716 6.75195C14.9987 7.30013 15.0581 7.90333 14.9424 8.48527C14.8266 9.06721 14.5409 9.60176 14.1213 10.0213C13.7018 10.4409 13.1672 10.7266 12.5853 10.8424C12.0033 10.9581 11.4001 10.8987 10.8519 10.6716C10.3038 10.4446 9.83524 10.0601 9.50559 9.56671C9.17595 9.07336 9 8.49334 9 7.9C9 7.10435 9.31607 6.34129 9.87868 5.77868C10.4413 5.21607 11.2044 4.9 12 4.9ZM12 12.8C14 12.8 18 13.89 18 15.88C17.3432 16.8701 16.4516 17.6823 15.4047 18.2442C14.3578 18.806 13.1881 19.1 12 19.1C10.8119 19.1 9.64218 18.806 8.59527 18.2442C7.54836 17.6823 6.65677 16.8701 6 15.88C6 13.89 10 12.8 12 12.8Z"
            fill="currentColor"/>
        </symbol>
        <!-- 파일 -->
        <symbol id="i-file" xmlns="http://www.w3.org/2000/svg" viewBox="0 0 24 24" fill="none">
            <path d="M13 9V3.5L18.5 9M6 2C4.89 2 4 2.89 4 4V20C4 20.5304 4.21071 21.0391 4.58579 21.4142C4.96086 21.7893 5.46957 22 6 22H18C18.5304 22 19.0391 21.7893 19.4142 21.4142C19.7893 21.0391 20 20.5304 20 20V8L14 2H6Z"
            fill="currentColor"/>
        </symbol>
        <!-- 폴더 -->
        <symbol id="i-folder" xmlns="http://www.w3.org/2000/svg" viewBox="0 0 24 24" fill="none">
            <path d="M2 5C2 4.46957 2.21071 3.96086 2.58579 3.58579C2.96086 3.21071 3.46957 3 4 3H9.52C9.81977 3.00004 10.1157 3.06746 10.3859 3.19728C10.6561 3.3271 10.8936 3.51599 11.081 3.75L12.481 5.5H20C20.5304 5.5 21.0391 5.71071 21.4142 6.08579C21.7893 6.46086 22 6.96957 22 7.5V19C22 19.5304 21.7893 20.0391 21.4142 20.4142C21.0391 20.7893 20.5304 21 20 21H4C3.46957 21 2.96086 20.7893 2.58579 20.4142C2.21071 20.0391 2 19.5304 2 19V5Z"
            fill="currentColor"/>
        </symbol>
        <!-- 쓰레기통 -->
        <symbol id="i-trash" xmlns="http://www.w3.org/2000/svg" viewBox="0 0 24 24" fill="none">
            <path d="M20 6C20.2549 6.00028 20.5 6.09788 20.6854 6.27285C20.8707 6.44782 20.9822 6.68695 20.9972 6.94139C21.0121 7.19584 20.9293 7.44638 20.7657 7.64183C20.6021 7.83729 20.3701 7.9629 20.117 7.993L20 8H19.919L19 19C19 19.7652 18.7077 20.5015 18.1827 21.0583C17.6577 21.615 16.9399 21.9501 16.176 21.995L16 22H7.99999C6.40199 22 5.09599 20.751 5.00799 19.25L5.00299 19.083L4.07999 8H3.99999C3.74511 7.99972 3.49996 7.90212 3.31462 7.72715C3.12929 7.55218 3.01776 7.31305 3.00282 7.05861C2.98788 6.80416 3.07067 6.55362 3.23426 6.35817C3.39785 6.16271 3.62989 6.0371 3.88299 6.007L3.99999 6H20ZM14 2C14.5304 2 15.0391 2.21071 15.4142 2.58579C15.7893 2.96086 16 3.46957 16 4C15.9997 4.25488 15.9021 4.50003 15.7271 4.68537C15.5522 4.8707 15.313 4.98223 15.0586 4.99717C14.8042 5.01211 14.5536 4.92933 14.3582 4.76574C14.1627 4.60214 14.0371 4.3701 14.007 4.117L14 4H9.99999L9.99299 4.117C9.96289 4.3701 9.83728 4.60214 9.64182 4.76574C9.44637 4.92933 9.19583 5.01211 8.94139 4.99717C8.68694 4.98223 8.44781 4.8707 8.27284 4.68537C8.09787 4.50003 8.00027 4.25488 7.99999 4C7.99983 3.49542 8.1904 3.00943 8.53349 2.63945C8.87658 2.26947 9.34684 2.04284 9.84999 2.005L9.99999 2H14Z"
            fill="currentColor"/>
        </symbol>
        <!-- 확성기/공지 -->
        <symbol id="i-speaker" xmlns="http://www.w3.org/2000/svg" viewBox="0 0 24 24" fill="none">
            <path d="M19 8V14C20.7 14 22 12.7 22 11C22 9.3 20.7 8 19 8ZM11 7H4C2.9 7 2 7.9 2 9V13C2 14.1 2.9 15 4 15H5V18C5 19.1 5.9 20 7 20H9V15H11L15 19H17V3H15L11 7Z"
            fill="currentColor"/>
        </symbol>
        <!-- 외부 링크 (LinkButton target="_blank" 자동 표시) -->
        <symbol id="i-external-link" xmlns="http://www.w3.org/2000/svg" viewBox="0 0 24 24" fill="none">
            <path d="M15 3H21V9" stroke="currentColor" stroke-width="2" stroke-linecap="round" stroke-linejoin="round"/>
            <path d="M10 14L21 3" stroke="currentColor" stroke-width="2" stroke-linecap="round" stroke-linejoin="round"/>
            <path d="M18 13V19C18 19.5304 17.7893 20.0391 17.4142 20.4142C17.0391 20.7893 16.5304 21 16 21H5C4.46957 21 3.96086 20.7893 3.58579 20.4142C3.21071 20.0391 3 19.5304 3 19V8C3 7.46957 3.21071 6.96086 3.58579 6.58579C3.96086 6.21071 4.46957 6 5 6H11" stroke="currentColor" stroke-width="2" stroke-linecap="round" stroke-linejoin="round"/>
        </symbol>
        <!-- 다운로드 -->
        <symbol id="i-download" xmlns="http://www.w3.org/2000/svg" viewBox="0 0 24 24" fill="none">
            <path d="M12 15L8 11H11V3H13V11H16L12 15ZM4 19V17H20V19H4Z"
            fill="currentColor"/>
        </symbol>
        <!-- 저장/플로피디스크 -->
        <symbol id="i-save" xmlns="http://www.w3.org/2000/svg" viewBox="0 0 24 24" fill="none">
            <path d="M17 3H5C3.89 3 3 3.9 3 5V19C3 20.1 3.89 21 5 21H19C20.1 21 21 20.1 21 19V7L17 3ZM19 19H5V5H16.17L19 7.83V19ZM12 12C10.34 12 9 13.34 9 15C9 16.66 10.34 18 12 18C13.66 18 15 16.66 15 15C15 13.34 13.66 12 12 12ZM6 6H15V10H6V6Z"
            fill="currentColor"/>
        </symbol>
        <!-- QR 코드 -->
        <symbol id="i-qr" xmlns="http://www.w3.org/2000/svg" viewBox="0 0 24 24" fill="none">
            <path d="M3 11H11V3H3V11ZM5 5H9V9H5V5ZM13 3V11H21V3H13ZM19 9H15V5H19V9ZM3 21H11V13H3V21ZM5 15H9V19H5V15ZM18 13H21V16H18V13ZM16 13H18V15H16V13ZM13 15H16V18H13V15ZM15 17H18V21H15V17ZM18 17H21V19H18V17ZM13 19H15V21H13V19ZM19 19H21V21H19V19Z"
            fill="currentColor"/>
        </symbol>
        <!-- 벨/알림 -->
        <symbol id="i-bell" xmlns="http://www.w3.org/2000/svg" viewBox="0 0 24 24" fill="none">
            <path d="M12 22C13.1 22 14 21.1 14 20H10C10 21.1 10.9 22 12 22ZM18 16V11C18 7.93 16.36 5.36 13.5 4.68V4C13.5 3.17 12.83 2.5 12 2.5C11.17 2.5 10.5 3.17 10.5 4V4.68C7.63 5.36 6 7.92 6 11V16L4 18V19H20V18L18 16Z"
            fill="currentColor"/>
        </symbol>
        <!-- 눈 / 상세보기 -->
        <symbol id="i-eye" xmlns="http://www.w3.org/2000/svg" viewBox="0 0 24 24" fill="none">
            <path d="M12 4.5C7 4.5 2.73 7.61 1 12C2.73 16.39 7 19.5 12 19.5C17 19.5 21.27 16.39 23 12C21.27 7.61 17 4.5 12 4.5ZM12 17C9.24 17 7 14.76 7 12C7 9.24 9.24 7 12 7C14.76 7 17 9.24 17 12C17 14.76 14.76 17 12 17ZM12 9C10.34 9 9 10.34 9 12C9 13.66 10.34 15 12 15C13.66 15 15 13.66 15 12C15 10.34 13.66 9 12 9Z"
            fill="currentColor"/>
        </symbol>
        <!-- 로그인 -->
        <symbol id="i-login" xmlns="http://www.w3.org/2000/svg" viewBox="0 0 24 24" fill="none">
            <path d="M11 7L9.6 8.4L12.2 11H2V13H12.2L9.6 15.6L11 17L16 12L11 7ZM20 19H12V21H20C21.1 21 22 20.1 22 19V5C22 3.9 21.1 3 20 3H12V5H20V19Z"
            fill="currentColor"/>
        </symbol>
        <!-- 지구본/글로브 -->
        <symbol id="i-globe" xmlns="http://www.w3.org/2000/svg" viewBox="0 0 24 24" fill="none">
            <path d="M12 2C6.48 2 2 6.48 2 12C2 17.52 6.48 22 12 22C17.52 22 22 17.52 22 12C22 6.48 17.52 2 12 2ZM11 19.93C7.05 19.44 4 16.08 4 12C4 11.38 4.08 10.79 4.21 10.21L9 15V16C9 17.1 9.9 18 11 18V19.93ZM17.9 17.39C17.64 16.58 16.9 16 16 16H15V13C15 12.45 14.55 12 14 12H8V10H10C10.55 10 11 9.55 11 9V7H13C14.1 7 15 6.1 15 5V4.59C17.93 5.78 20 8.65 20 12C20 14.08 19.2 15.97 17.9 17.39Z"
            fill="currentColor"/>
        </symbol>
        <!-- 아래 화살표 (셀렉트 드롭다운) -->
        <symbol id="i-chevron-down" xmlns="http://www.w3.org/2000/svg" viewBox="0 0 24 24" fill="none">
            <path d="M6 9L12 15L18 9" stroke="currentColor" stroke-width="2" stroke-linecap="round" stroke-linejoin="round"/>
        </symbol>
        <!-- 체크 (선택 완료) -->
        <symbol id="i-check" xmlns="http://www.w3.org/2000/svg" viewBox="0 0 24 24" fill="none">
            <path d="M20 6L9 17L4 12" stroke="currentColor" stroke-width="2.5" stroke-linecap="round" stroke-linejoin="round"/>
        </symbol>
    </defs>
</svg>
